<mxfile host="app.diagrams.net" modified="2023-12-12T21:19:08.720Z" agent="Mozilla/5.0 (Windows NT 10.0; Win64; x64) AppleWebKit/537.36 (KHTML, like Gecko) Chrome/118.0.0.0 Safari/537.36" etag="9Nwbh-FUB5oVB1Eu_DWa" version="22.1.7" type="github">
  <diagram id="1cee9afd-dcdd-cf27-cb82-50d77dad4855" name="Page-1">
    <mxGraphModel dx="1671" dy="1018" grid="1" gridSize="10" guides="1" tooltips="1" connect="1" arrows="1" fold="1" page="1" pageScale="1" pageWidth="850" pageHeight="1100" math="0" shadow="0">
      <root>
        <mxCell id="0" />
        <mxCell id="1" parent="0" />
        <mxCell id="4ThGJ15uXNUf0RNEpSx--26" value="" style="rounded=0;whiteSpace=wrap;html=1;fillColor=default;" parent="1" vertex="1">
          <mxGeometry x="210" y="120" width="460" height="800" as="geometry" />
        </mxCell>
        <mxCell id="Qu8sucnWAvdfmmjdlGFY-13" style="rounded=0;orthogonalLoop=1;jettySize=auto;html=1;exitX=0.5;exitY=0;exitDx=0;exitDy=0;dashed=1;" edge="1" parent="1" source="c1cb8d76720eaeb-6" target="c1cb8d76720eaeb-26">
          <mxGeometry relative="1" as="geometry" />
        </mxCell>
        <mxCell id="Qu8sucnWAvdfmmjdlGFY-14" value="&amp;lt;&amp;lt;include&amp;gt;&amp;gt;" style="edgeLabel;html=1;align=center;verticalAlign=middle;resizable=0;points=[];" vertex="1" connectable="0" parent="Qu8sucnWAvdfmmjdlGFY-13">
          <mxGeometry x="-0.1484" y="1" relative="1" as="geometry">
            <mxPoint y="-1" as="offset" />
          </mxGeometry>
        </mxCell>
        <mxCell id="c1cb8d76720eaeb-6" value="Manage Comments and Documents" style="ellipse;whiteSpace=wrap;html=1;fillColor=#fff2cc;strokeColor=#d6b656;" parent="1" vertex="1">
          <mxGeometry x="530" y="300" width="120" height="80" as="geometry" />
        </mxCell>
        <mxCell id="Qu8sucnWAvdfmmjdlGFY-11" style="rounded=0;orthogonalLoop=1;jettySize=auto;html=1;exitX=1;exitY=0.5;exitDx=0;exitDy=0;dashed=1;" edge="1" parent="1" source="c1cb8d76720eaeb-26" target="4ThGJ15uXNUf0RNEpSx--28">
          <mxGeometry relative="1" as="geometry" />
        </mxCell>
        <mxCell id="Qu8sucnWAvdfmmjdlGFY-12" value="&amp;lt;&amp;lt;extends&amp;gt;&amp;gt;" style="edgeLabel;html=1;align=center;verticalAlign=middle;resizable=0;points=[];" vertex="1" connectable="0" parent="Qu8sucnWAvdfmmjdlGFY-11">
          <mxGeometry x="0.142" relative="1" as="geometry">
            <mxPoint y="1" as="offset" />
          </mxGeometry>
        </mxCell>
        <mxCell id="c1cb8d76720eaeb-26" value="&lt;span style=&quot;font-size: 11px;&quot;&gt;Manage Recovery Strategies&lt;/span&gt;" style="ellipse;whiteSpace=wrap;html=1;fillColor=#fff2cc;strokeColor=#d6b656;" parent="1" vertex="1">
          <mxGeometry x="365" y="230" width="120" height="80" as="geometry" />
        </mxCell>
        <mxCell id="4ThGJ15uXNUf0RNEpSx--27" value="Internal System Management" style="text;html=1;align=center;verticalAlign=middle;resizable=0;points=[];autosize=1;strokeColor=none;fillColor=none;" parent="1" vertex="1">
          <mxGeometry x="350" y="140" width="180" height="30" as="geometry" />
        </mxCell>
        <mxCell id="4ThGJ15uXNUf0RNEpSx--28" value="&lt;span style=&quot;font-size: 11px;&quot;&gt;Assign Feasibility Options&lt;/span&gt;" style="ellipse;whiteSpace=wrap;html=1;fillColor=#fff2cc;strokeColor=#d6b656;" parent="1" vertex="1">
          <mxGeometry x="540" y="160" width="120" height="80" as="geometry" />
        </mxCell>
        <mxCell id="Qu8sucnWAvdfmmjdlGFY-1" style="rounded=0;orthogonalLoop=1;jettySize=auto;html=1;exitX=1;exitY=0.3333333333333333;exitDx=0;exitDy=0;exitPerimeter=0;endArrow=none;endFill=0;" edge="1" parent="1" source="NXkf0V2V1COPAbD15EZ_-11" target="c1cb8d76720eaeb-26">
          <mxGeometry relative="1" as="geometry" />
        </mxCell>
        <mxCell id="Qu8sucnWAvdfmmjdlGFY-2" style="rounded=0;orthogonalLoop=1;jettySize=auto;html=1;exitX=1;exitY=0.3333333333333333;exitDx=0;exitDy=0;exitPerimeter=0;entryX=0;entryY=0.5;entryDx=0;entryDy=0;endArrow=none;endFill=0;" edge="1" parent="1" source="NXkf0V2V1COPAbD15EZ_-11" target="NXkf0V2V1COPAbD15EZ_-24">
          <mxGeometry relative="1" as="geometry" />
        </mxCell>
        <mxCell id="Qu8sucnWAvdfmmjdlGFY-3" style="rounded=0;orthogonalLoop=1;jettySize=auto;html=1;exitX=1;exitY=0.3333333333333333;exitDx=0;exitDy=0;exitPerimeter=0;entryX=0;entryY=0.5;entryDx=0;entryDy=0;endArrow=none;endFill=0;" edge="1" parent="1" source="NXkf0V2V1COPAbD15EZ_-11" target="NXkf0V2V1COPAbD15EZ_-29">
          <mxGeometry relative="1" as="geometry" />
        </mxCell>
        <mxCell id="NXkf0V2V1COPAbD15EZ_-11" value="Project Manager" style="shape=umlActor;verticalLabelPosition=bottom;labelBackgroundColor=#ffffff;verticalAlign=top;html=1;strokeWidth=4;fillColor=#030203;strokeColor=#000000;fontColor=#000099;" parent="1" vertex="1">
          <mxGeometry x="60" y="240" width="30" height="60" as="geometry" />
        </mxCell>
        <mxCell id="Qu8sucnWAvdfmmjdlGFY-5" style="rounded=0;orthogonalLoop=1;jettySize=auto;html=1;exitX=1;exitY=0.3333333333333333;exitDx=0;exitDy=0;exitPerimeter=0;entryX=0;entryY=0.5;entryDx=0;entryDy=0;endArrow=none;endFill=0;" edge="1" parent="1" source="NXkf0V2V1COPAbD15EZ_-13" target="c1cb8d76720eaeb-26">
          <mxGeometry relative="1" as="geometry" />
        </mxCell>
        <mxCell id="Qu8sucnWAvdfmmjdlGFY-6" style="rounded=0;orthogonalLoop=1;jettySize=auto;html=1;exitX=1;exitY=0.3333333333333333;exitDx=0;exitDy=0;exitPerimeter=0;entryX=0;entryY=0.5;entryDx=0;entryDy=0;endArrow=none;endFill=0;" edge="1" parent="1" source="NXkf0V2V1COPAbD15EZ_-13" target="NXkf0V2V1COPAbD15EZ_-24">
          <mxGeometry relative="1" as="geometry" />
        </mxCell>
        <mxCell id="Qu8sucnWAvdfmmjdlGFY-7" style="rounded=0;orthogonalLoop=1;jettySize=auto;html=1;exitX=1;exitY=0.3333333333333333;exitDx=0;exitDy=0;exitPerimeter=0;entryX=0;entryY=0.5;entryDx=0;entryDy=0;endArrow=none;endFill=0;" edge="1" parent="1" source="NXkf0V2V1COPAbD15EZ_-13" target="NXkf0V2V1COPAbD15EZ_-26">
          <mxGeometry relative="1" as="geometry" />
        </mxCell>
        <mxCell id="NXkf0V2V1COPAbD15EZ_-13" value="Business Analysts" style="shape=umlActor;verticalLabelPosition=bottom;labelBackgroundColor=#ffffff;verticalAlign=top;html=1;strokeWidth=4;fillColor=#030203;strokeColor=#000000;fontColor=#000099;" parent="1" vertex="1">
          <mxGeometry x="60" y="490" width="30" height="60" as="geometry" />
        </mxCell>
        <mxCell id="Qu8sucnWAvdfmmjdlGFY-8" style="rounded=0;orthogonalLoop=1;jettySize=auto;html=1;exitX=1;exitY=0.3333333333333333;exitDx=0;exitDy=0;exitPerimeter=0;entryX=0;entryY=0.5;entryDx=0;entryDy=0;endArrow=none;endFill=0;" edge="1" parent="1" source="NXkf0V2V1COPAbD15EZ_-14" target="NXkf0V2V1COPAbD15EZ_-19">
          <mxGeometry relative="1" as="geometry" />
        </mxCell>
        <mxCell id="Qu8sucnWAvdfmmjdlGFY-9" style="rounded=0;orthogonalLoop=1;jettySize=auto;html=1;exitX=1;exitY=0.3333333333333333;exitDx=0;exitDy=0;exitPerimeter=0;entryX=0;entryY=0.5;entryDx=0;entryDy=0;endArrow=none;endFill=0;" edge="1" parent="1" source="NXkf0V2V1COPAbD15EZ_-14" target="NXkf0V2V1COPAbD15EZ_-29">
          <mxGeometry relative="1" as="geometry" />
        </mxCell>
        <mxCell id="Qu8sucnWAvdfmmjdlGFY-10" style="rounded=0;orthogonalLoop=1;jettySize=auto;html=1;exitX=1;exitY=0.3333333333333333;exitDx=0;exitDy=0;exitPerimeter=0;endArrow=none;endFill=0;" edge="1" parent="1" source="NXkf0V2V1COPAbD15EZ_-14" target="NXkf0V2V1COPAbD15EZ_-28">
          <mxGeometry relative="1" as="geometry" />
        </mxCell>
        <mxCell id="NXkf0V2V1COPAbD15EZ_-14" value="System analyst" style="shape=umlActor;verticalLabelPosition=bottom;labelBackgroundColor=#ffffff;verticalAlign=top;html=1;strokeWidth=4;fillColor=#030203;strokeColor=#000000;fontColor=#000099;" parent="1" vertex="1">
          <mxGeometry x="80" y="700" width="30" height="60" as="geometry" />
        </mxCell>
        <mxCell id="Qu8sucnWAvdfmmjdlGFY-22" style="rounded=0;orthogonalLoop=1;jettySize=auto;html=1;exitX=0;exitY=0.3333333333333333;exitDx=0;exitDy=0;exitPerimeter=0;entryX=1;entryY=0.5;entryDx=0;entryDy=0;endArrow=none;endFill=0;" edge="1" parent="1" source="NXkf0V2V1COPAbD15EZ_-15" target="c1cb8d76720eaeb-26">
          <mxGeometry relative="1" as="geometry" />
        </mxCell>
        <mxCell id="Qu8sucnWAvdfmmjdlGFY-23" style="rounded=0;orthogonalLoop=1;jettySize=auto;html=1;exitX=0;exitY=0.3333333333333333;exitDx=0;exitDy=0;exitPerimeter=0;entryX=1;entryY=0;entryDx=0;entryDy=0;endArrow=none;endFill=0;" edge="1" parent="1" source="NXkf0V2V1COPAbD15EZ_-15" target="NXkf0V2V1COPAbD15EZ_-24">
          <mxGeometry relative="1" as="geometry" />
        </mxCell>
        <mxCell id="Qu8sucnWAvdfmmjdlGFY-24" style="rounded=0;orthogonalLoop=1;jettySize=auto;html=1;exitX=0;exitY=0.3333333333333333;exitDx=0;exitDy=0;exitPerimeter=0;entryX=1;entryY=0.5;entryDx=0;entryDy=0;endArrow=none;endFill=0;" edge="1" parent="1" source="NXkf0V2V1COPAbD15EZ_-15" target="NXkf0V2V1COPAbD15EZ_-26">
          <mxGeometry relative="1" as="geometry" />
        </mxCell>
        <mxCell id="NXkf0V2V1COPAbD15EZ_-15" value="Developer Teams" style="shape=umlActor;verticalLabelPosition=bottom;labelBackgroundColor=#ffffff;verticalAlign=top;html=1;strokeWidth=4;fillColor=#030203;strokeColor=#000000;fontColor=#000099;" parent="1" vertex="1">
          <mxGeometry x="810" y="280" width="30" height="60" as="geometry" />
        </mxCell>
        <mxCell id="Qu8sucnWAvdfmmjdlGFY-26" style="rounded=0;orthogonalLoop=1;jettySize=auto;html=1;exitX=0;exitY=0.3333333333333333;exitDx=0;exitDy=0;exitPerimeter=0;entryX=1;entryY=0.5;entryDx=0;entryDy=0;endArrow=none;endFill=0;" edge="1" parent="1" source="NXkf0V2V1COPAbD15EZ_-16" target="NXkf0V2V1COPAbD15EZ_-29">
          <mxGeometry relative="1" as="geometry" />
        </mxCell>
        <mxCell id="Qu8sucnWAvdfmmjdlGFY-27" style="rounded=0;orthogonalLoop=1;jettySize=auto;html=1;exitX=0;exitY=0.3333333333333333;exitDx=0;exitDy=0;exitPerimeter=0;entryX=1;entryY=0.5;entryDx=0;entryDy=0;endArrow=none;endFill=0;" edge="1" parent="1" source="NXkf0V2V1COPAbD15EZ_-16" target="NXkf0V2V1COPAbD15EZ_-28">
          <mxGeometry relative="1" as="geometry" />
        </mxCell>
        <mxCell id="NXkf0V2V1COPAbD15EZ_-16" value="Tester" style="shape=umlActor;verticalLabelPosition=bottom;labelBackgroundColor=#ffffff;verticalAlign=top;html=1;strokeWidth=4;fillColor=#030203;strokeColor=#000000;fontColor=#000099;" parent="1" vertex="1">
          <mxGeometry x="870" y="770" width="30" height="60" as="geometry" />
        </mxCell>
        <mxCell id="Qu8sucnWAvdfmmjdlGFY-28" style="rounded=0;orthogonalLoop=1;jettySize=auto;html=1;exitX=0;exitY=0.3333333333333333;exitDx=0;exitDy=0;exitPerimeter=0;entryX=1;entryY=1;entryDx=0;entryDy=0;endArrow=none;endFill=0;" edge="1" parent="1" source="NXkf0V2V1COPAbD15EZ_-17" target="c1cb8d76720eaeb-26">
          <mxGeometry relative="1" as="geometry" />
        </mxCell>
        <mxCell id="Qu8sucnWAvdfmmjdlGFY-29" style="rounded=0;orthogonalLoop=1;jettySize=auto;html=1;exitX=0;exitY=0.3333333333333333;exitDx=0;exitDy=0;exitPerimeter=0;entryX=1;entryY=0;entryDx=0;entryDy=0;endArrow=none;endFill=0;" edge="1" parent="1" source="NXkf0V2V1COPAbD15EZ_-17" target="NXkf0V2V1COPAbD15EZ_-24">
          <mxGeometry relative="1" as="geometry" />
        </mxCell>
        <mxCell id="NXkf0V2V1COPAbD15EZ_-17" value="Change Management and Communications team" style="shape=umlActor;verticalLabelPosition=bottom;labelBackgroundColor=#ffffff;verticalAlign=top;html=1;strokeWidth=4;fillColor=#030203;strokeColor=#000000;fontColor=#000099;" parent="1" vertex="1">
          <mxGeometry x="850" y="550" width="30" height="60" as="geometry" />
        </mxCell>
        <mxCell id="Qu8sucnWAvdfmmjdlGFY-31" style="rounded=0;orthogonalLoop=1;jettySize=auto;html=1;exitX=0;exitY=0.3333333333333333;exitDx=0;exitDy=0;exitPerimeter=0;entryX=1;entryY=0.5;entryDx=0;entryDy=0;endArrow=none;endFill=0;" edge="1" parent="1" source="NXkf0V2V1COPAbD15EZ_-18" target="NXkf0V2V1COPAbD15EZ_-28">
          <mxGeometry relative="1" as="geometry" />
        </mxCell>
        <mxCell id="Qu8sucnWAvdfmmjdlGFY-32" style="rounded=0;orthogonalLoop=1;jettySize=auto;html=1;exitX=0;exitY=0.3333333333333333;exitDx=0;exitDy=0;exitPerimeter=0;endArrow=none;endFill=0;" edge="1" parent="1" source="NXkf0V2V1COPAbD15EZ_-18" target="NXkf0V2V1COPAbD15EZ_-26">
          <mxGeometry relative="1" as="geometry" />
        </mxCell>
        <mxCell id="Qu8sucnWAvdfmmjdlGFY-33" style="rounded=0;orthogonalLoop=1;jettySize=auto;html=1;exitX=0;exitY=0.3333333333333333;exitDx=0;exitDy=0;exitPerimeter=0;endArrow=none;endFill=0;" edge="1" parent="1" source="NXkf0V2V1COPAbD15EZ_-18" target="NXkf0V2V1COPAbD15EZ_-24">
          <mxGeometry relative="1" as="geometry" />
        </mxCell>
        <mxCell id="Qu8sucnWAvdfmmjdlGFY-34" style="rounded=0;orthogonalLoop=1;jettySize=auto;html=1;exitX=0;exitY=0.3333333333333333;exitDx=0;exitDy=0;exitPerimeter=0;endArrow=none;endFill=0;" edge="1" parent="1" source="NXkf0V2V1COPAbD15EZ_-18" target="c1cb8d76720eaeb-26">
          <mxGeometry relative="1" as="geometry" />
        </mxCell>
        <mxCell id="NXkf0V2V1COPAbD15EZ_-18" value="Authorized Users" style="shape=umlActor;verticalLabelPosition=bottom;labelBackgroundColor=#ffffff;verticalAlign=top;html=1;strokeWidth=4;fillColor=#030203;strokeColor=#000000;fontColor=#000099;" parent="1" vertex="1">
          <mxGeometry x="700" y="950" width="30" height="60" as="geometry" />
        </mxCell>
        <mxCell id="NXkf0V2V1COPAbD15EZ_-19" value="Manage Reasons/Details for Feasibility Options" style="ellipse;whiteSpace=wrap;html=1;fillColor=#fff2cc;strokeColor=#d6b656;" parent="1" vertex="1">
          <mxGeometry x="350" y="360" width="120" height="80" as="geometry" />
        </mxCell>
        <mxCell id="NXkf0V2V1COPAbD15EZ_-24" value="Manage action plans" style="ellipse;whiteSpace=wrap;html=1;fillColor=#fff2cc;strokeColor=#d6b656;" parent="1" vertex="1">
          <mxGeometry x="350" y="470" width="120" height="80" as="geometry" />
        </mxCell>
        <mxCell id="Qu8sucnWAvdfmmjdlGFY-16" style="rounded=0;orthogonalLoop=1;jettySize=auto;html=1;exitX=0.5;exitY=0;exitDx=0;exitDy=0;entryX=1;entryY=0.5;entryDx=0;entryDy=0;dashed=1;" edge="1" parent="1" source="NXkf0V2V1COPAbD15EZ_-25" target="NXkf0V2V1COPAbD15EZ_-24">
          <mxGeometry relative="1" as="geometry" />
        </mxCell>
        <mxCell id="Qu8sucnWAvdfmmjdlGFY-17" value="&amp;lt;&amp;lt;include&amp;gt;&amp;gt;" style="edgeLabel;html=1;align=center;verticalAlign=middle;resizable=0;points=[];" vertex="1" connectable="0" parent="Qu8sucnWAvdfmmjdlGFY-16">
          <mxGeometry x="0.0556" y="3" relative="1" as="geometry">
            <mxPoint as="offset" />
          </mxGeometry>
        </mxCell>
        <mxCell id="NXkf0V2V1COPAbD15EZ_-25" value="Assign Action plans to Recovery Strategies" style="ellipse;whiteSpace=wrap;html=1;fillColor=#fff2cc;strokeColor=#d6b656;" parent="1" vertex="1">
          <mxGeometry x="550" y="560" width="120" height="80" as="geometry" />
        </mxCell>
        <mxCell id="NXkf0V2V1COPAbD15EZ_-26" value="Manage monitoring/reporting documents" style="ellipse;whiteSpace=wrap;html=1;fillColor=#fff2cc;strokeColor=#d6b656;" parent="1" vertex="1">
          <mxGeometry x="360" y="580" width="120" height="80" as="geometry" />
        </mxCell>
        <mxCell id="NXkf0V2V1COPAbD15EZ_-28" value="Manage Authorized users" style="ellipse;whiteSpace=wrap;html=1;fillColor=#fff2cc;strokeColor=#d6b656;" parent="1" vertex="1">
          <mxGeometry x="360" y="680" width="120" height="80" as="geometry" />
        </mxCell>
        <mxCell id="NXkf0V2V1COPAbD15EZ_-29" value="System Availability Management" style="ellipse;whiteSpace=wrap;html=1;fillColor=#fff2cc;strokeColor=#d6b656;" parent="1" vertex="1">
          <mxGeometry x="364" y="780" width="120" height="80" as="geometry" />
        </mxCell>
        <mxCell id="Qu8sucnWAvdfmmjdlGFY-18" style="edgeStyle=orthogonalEdgeStyle;rounded=0;orthogonalLoop=1;jettySize=auto;html=1;exitX=0.5;exitY=1;exitDx=0;exitDy=0;" edge="1" parent="1" source="4ThGJ15uXNUf0RNEpSx--26" target="4ThGJ15uXNUf0RNEpSx--26">
          <mxGeometry relative="1" as="geometry" />
        </mxCell>
      </root>
    </mxGraphModel>
  </diagram>
</mxfile>
